<svg id="Layer_1" fill="#fff" data-name="Layer 1" xmlns="http://www.w3.org/2000/svg" viewBox="0 0 345.91 76.05"><defs><style>.cls-1{fill:#fff;}</style></defs><title>LogoVivaNew</title><path class="cls-1" d="M83.68,97.59c-5.25,0-10.05-3-13.09-8.14-3,5.13-7.84,8.14-13.09,8.14h-.09c-5.73,0-10.88-3.66-13.8-9.7v0L21,39.85,49.82,26.44l20.74,44,20.52-44,28.76,13.41L97.57,87.89c-2.92,6-8.07,9.66-13.8,9.7h-.09M77.2,84.49c1.57,3.13,3.94,4.92,6.48,4.92h0c2.57,0,4.94-1.85,6.48-5L109,43.81,95,37.3,75.09,80ZM51,84.35c1.55,3.2,3.91,5,6.47,5.05h0c2.55,0,4.91-1.79,6.49-4.91L66.06,80,45.89,37.29,31.94,43.8Z" transform="translate(-21.05 -26.43)"/><path class="cls-1" d="M154.53,88.51c4.28,0,6.41-3.47,7.5-5.9l10.56-26.77-8.4-3-9.66,26.79L144.87,52.8l-8.4,3L147,82.61C148.12,85,150.25,88.51,154.53,88.51Z" transform="translate(-21.05 -26.43)"/><path class="cls-1" d="M213,88.51c4.28,0,6.41-3.47,7.5-5.9L231,55.84l-8.4-3L213,79.59,203.32,52.8l-8.4,3,10.56,26.77C206.57,85,208.7,88.51,213,88.51Z" transform="translate(-21.05 -26.43)"/><path class="cls-1" d="M269.36,87.61h-8.67V83.74a12.87,12.87,0,0,1-10.49,4.78c-9.67,0-17-7.92-17-18.45s7.31-18.46,17-18.46a12.84,12.84,0,0,1,10.49,4.81V52.55h8.67ZM241.89,70.06c0,5.65,3.71,10.19,9.54,10.19S261,75.91,261,70.06s-3.84-10.19-9.54-10.19-9.54,4.54-9.54,10.19" transform="translate(-21.05 -26.43)"/><rect class="cls-1" x="158.36" y="26.15" width="8.56" height="35.08"/><path class="cls-1" d="M189.17,40.72a5.49,5.49,0,1,1-5.5-5.54A5.48,5.48,0,0,1,189.17,40.72Z" transform="translate(-21.05 -26.43)"/><path class="cls-1" d="M284.79,75a6.76,6.76,0,1,0,6.73,6.73A6.92,6.92,0,0,0,284.79,75Z" transform="translate(-21.05 -26.43)"/><path class="cls-1" d="M323.73,52.49v3.17c-2.64-2.7-6.26-4.06-10.78-4.06-8,0-16.31,6.77-16.31,18.09s8.29,18.09,16.31,18.09c4.52,0,8.14-1.36,10.78-4.06V85c0,6.19-3.64,9.6-10.24,9.6a21.49,21.49,0,0,1-11.25-3.36l-.54-.34-3.12,7.28.36.26c3.5,2.49,9.08,4,14.56,4,11.6,0,18.8-6.82,18.8-17.81V52.49Zm-8.86,27.2c-6.24,0-9.5-5-9.5-10,0-5.88,3.91-10,9.5-10s9.5,4.21,9.5,10S320.37,79.69,314.87,79.69Z" transform="translate(-21.05 -26.43)"/><path class="cls-1" d="M366.51,52.6a15.46,15.46,0,0,0-5.92-1c-3.94,0-7.07,1.24-9.32,3.7V52.49h-8.45V87.61h8.52V68.34c0-5.29,2.89-8.58,7.54-8.58A12.6,12.6,0,0,1,364.28,61l.63.33,2.05-8.5Z" transform="translate(-21.05 -26.43)"/></svg>